<svg xmlns="http://www.w3.org/2000/svg" version="1.1" viewBox="-5.0 -10.0 110.0 135.0">
 <path d="m97.137 22.223c0.27344 0.26953 0.42969 0.63672 0.42969 1.0273v57.762c0 6.1211-5.0039 11.129-11.129 11.129h-38.789c-0.22266 3.0352-2.7695 5.4258-5.8359 5.4258h-33.527c-3.2227 0-5.8516-2.6328-5.8516-5.8516v-51.305c0-3.2227 2.6328-5.8516 5.8516-5.8516h23.609l0.003907-20.996c0-6.1211 5.0039-11.129 11.129-11.129h33.727c0.40234 0 0.76172 0.16406 1.0234 0.42578zm-42.945 43.871h36.574c0.79688 0 1.4414-0.64453 1.4414-1.4414s-0.64453-1.4414-1.4414-1.4414h-36.574c-0.79688 0-1.4414 0.64453-1.4414 1.4414-0.003906 0.79688 0.64453 1.4414 1.4414 1.4414zm0 20.512h19.984c0.79688 0 1.4414-0.64453 1.4414-1.4414 0-0.79687-0.64453-1.4414-1.4414-1.4414h-19.984c-0.79688 0-1.4414 0.64453-1.4414 1.4414-0.003906 0.79688 0.64453 1.4414 1.4414 1.4414zm0-6.8359h36.574c0.79688 0 1.4414-0.64453 1.4414-1.4414s-0.64453-1.4414-1.4414-1.4414h-36.574c-0.79688 0-1.4414 0.64453-1.4414 1.4414-0.003906 0.79297 0.64453 1.4414 1.4414 1.4414zm0-6.8398h36.574c0.79688 0 1.4414-0.64453 1.4414-1.4414s-0.64453-1.4414-1.4414-1.4414h-36.574c-0.79688 0-1.4414 0.64453-1.4414 1.4414-0.003906 0.79688 0.64453 1.4414 1.4414 1.4414zm-6.5273 16.328h38.773c4.5312 0 8.2461-3.7148 8.2461-8.2461v-56.32h-17.934c-0.79688 0-1.4414-0.64453-1.4414-1.4414v-17.934h-32.281c-4.5312 0-8.2461 3.7148-8.2461 8.2461v20.996h7.0312c3.2227 0 5.8516 2.6328 5.8516 5.8516zm-5.8516-51.816h-33.523c-1.6289 0-2.9688 1.3398-2.9688 2.9688v51.301c0 1.6328 1.3398 2.9688 2.9688 2.9688h33.523c1.6328 0 2.9688-1.3398 2.9688-2.9688v-51.301c0-1.6289-1.3398-2.9688-2.9688-2.9688zm-14.574 23.203c-0.79688 0-1.4414 0.64453-1.4414 1.4414v26.883c0 0.79688 0.64453 1.4414 1.4414 1.4414h13.383c0.79688 0 1.4414-0.64453 1.4414-1.4414v-26.879c0-0.79688-0.64453-1.4414-1.4414-1.4414h-13.383zm11.941 2.8828h-10.5v24h10.5zm-29.703-21.812c-0.79687 0-1.4414 0.64453-1.4414 1.4414v13.73c0 0.79688 0.64453 1.4414 1.4414 1.4414h31.145c0.79688 0 1.4414-0.64453 1.4414-1.4414v-13.73c0-0.79688-0.64453-1.4414-1.4414-1.4414zm29.703 2.8828h-28.262v10.848l28.262-0.003906zm16.762-27.449h15.52c0.79687 0 1.4414-0.64453 1.4414-1.4414s-0.64453-1.4414-1.4414-1.4414h-15.52c-0.79688 0-1.4414 0.64453-1.4414 1.4414 0 0.79297 0.64453 1.4414 1.4414 1.4414zm-4.5664-0.47266c0-2.4453-2.0625-4.2227-4.4102-4.7148v-1.5195c0-0.79688-0.64453-1.4414-1.4414-1.4414-0.79688 0-1.4414 0.64453-1.4414 1.4414v1.5195c-2.5352 0.53516-4.4102 2.4414-4.4102 4.7148 0 2.4453 2.0625 4.2227 4.4102 4.7148v3.8633c-0.91016-0.33984-1.5312-0.98828-1.5312-1.7344 0-0.79688-0.64453-1.4414-1.4414-1.4414s-1.4414 0.64453-1.4414 1.4414c0 2.2734 1.875 4.1836 4.4102 4.7148v1.5195c0 0.79688 0.64453 1.4414 1.4414 1.4414s1.4414-0.64453 1.4414-1.4414v-1.5195c0.97266-0.20312 1.8516-0.60938 2.5586-1.1562 3.3828-2.6211 1.9219-7.332-2.5586-8.2734v-3.8555c0.75781 0.28906 1.5312 0.91016 1.5312 1.7266 0 0.79688 0.64453 1.4414 1.4414 1.4414s1.4414-0.64453 1.4414-1.4414zm-7.293-1.7305c-2.0469 0.76172-2.0195 2.6875 0 3.4609zm3.6836 7.2969c-0.23047-0.17969-0.5-0.32813-0.80078-0.44141v3.4531c1.4844-0.57031 2.1445-1.9688 0.80078-3.0117zm8.1758 3.6953h15.52c0.79687 0 1.4414-0.64453 1.4414-1.4414s-0.64453-1.4414-1.4414-1.4414h-15.52c-0.79688 0-1.4414 0.64453-1.4414 1.4414s0.64453 1.4414 1.4414 1.4414zm-46.465 34.707c-0.79687 0-1.4414 0.64453-1.4414 1.4414v10.406c0 0.79687 0.64453 1.4414 1.4414 1.4414h10.406c0.79688 0 1.4414-0.64453 1.4414-1.4414v-10.402c0-0.79688-0.64453-1.4414-1.4414-1.4414h-10.406zm8.9648 2.8828h-7.5234v7.5234h7.5234zm-8.9648 13.594c-0.79687 0-1.4414 0.64453-1.4414 1.4414v10.406c0 0.79688 0.64453 1.4414 1.4414 1.4414h10.406c0.79688 0 1.4414-0.64453 1.4414-1.4414v-10.406c0-0.79688-0.64453-1.4414-1.4414-1.4414zm8.9648 2.8828h-7.5234v7.5234h7.5234zm35.75-33.543c-0.79688 0-1.4414 0.64453-1.4414 1.4414v10.344c0 0.79688 0.64453 1.4414 1.4414 1.4414h5.2266c0.79688 0 1.4414-0.64453 1.4414-1.4414l-0.003906-10.344c0-0.79688-0.64453-1.4414-1.4414-1.4414zm3.7812 2.8828h-2.3438v7.4609h2.3438zm27.566-11.137c-0.79687 0-1.4414 0.64453-1.4414 1.4414v18.602c0 0.79688 0.64453 1.4414 1.4414 1.4414h5.2266c0.79688 0 1.4414-0.64453 1.4414-1.4414v-18.602c0-0.79688-0.64453-1.4414-1.4414-1.4414zm3.7812 2.8828h-2.3398v15.719h2.3438zm-14.23 1.2969c-0.79688 0-1.4414 0.64453-1.4414 1.4414v14.422c0 0.79688 0.64453 1.4414 1.4414 1.4414h5.2266c0.79688 0 1.4414-0.64453 1.4414-1.4414l-0.003906-14.422c0-0.79688-0.64453-1.4414-1.4414-1.4414zm3.7812 2.8828h-2.3398v11.539h2.3438zm-14.23-10.199c-0.79688 0-1.4414 0.64453-1.4414 1.4414v21.734c0 0.79688 0.64453 1.4414 1.4414 1.4414h5.2266c0.79687 0 1.4414-0.64453 1.4414-1.4414l-0.003906-21.734c0-0.79688-0.64453-1.4414-1.4414-1.4414zm3.7812 2.8828h-2.3438v18.852h2.3438zm9.7695-30.598v14.453h14.453z" fill-rule="evenodd"/>
<text x="0.0" y="117.5" font-size="5.0" font-weight="bold" font-family="Arbeit Regular, Helvetica, Arial-Unicode, Arial, Sans-serif" fill="#000000">Created by Sofiah</text><text x="0.0" y="122.5" font-size="5.0" font-weight="bold" font-family="Arbeit Regular, Helvetica, Arial-Unicode, Arial, Sans-serif" fill="#000000">from Noun Project</text></svg>